HIERARCHY
ROOT hip
{
  OFFSET 0 0 0
  CHANNELS 6 Xposition Yposition Zposition Zrotation Yrotation Xrotation
  JOINT abdomen
  {
    OFFSET 0 20.6881 -0.73152
    CHANNELS 3 Zrotation Xrotation Yrotation
    JOINT chest
    {
      OFFSET 0 11.7043 -0.48768
      CHANNELS 3 Zrotation Xrotation Yrotation
      JOINT neck
      {
        OFFSET 0 22.1894 -2.19456
        CHANNELS 3 Zrotation Xrotation Yrotation
        JOINT head
        {
          OFFSET -0.24384 7.07133 1.2192
          CHANNELS 3 Zrotation Xrotation Yrotation
          JOINT leftEye
          {
            OFFSET 4.14528 8.04674 8.04672
            CHANNELS 3 Zrotation Xrotation Yrotation
            End Site
            {
              OFFSET 1 0 0
            }
          }
          JOINT rightEye
          {
            OFFSET -3.6576 8.04674 8.04672
            CHANNELS 3 Zrotation Xrotation Yrotation
            End Site
            {
              OFFSET 1 0 0
            }
          }
        }
      }
      JOINT rCollar
      {
        OFFSET -2.68224 19.2634 -4.8768
        CHANNELS 3 Zrotation Xrotation Yrotation
        JOINT rShldr
        {
          OFFSET -8.77824 -1.95073 1.46304
          CHANNELS 3 Zrotation Xrotation Yrotation
          JOINT rForeArm
          {
            OFFSET -28.1742 -1.7115 0.48768
            CHANNELS 3 Zrotation Xrotation Yrotation
            JOINT rHand
            {
              OFFSET -22.5879 0.773209 7.07136
              CHANNELS 3 Zrotation Xrotation Yrotation
              JOINT rThumb1
              {
                OFFSET -1.2192 -0.487915 3.41376
                CHANNELS 3 Zrotation Xrotation Yrotation
                JOINT rThumb2
                {
                  OFFSET -3.37035 -0.52449 3.41376
                  CHANNELS 3 Zrotation Xrotation Yrotation
                  End Site
                  {
                    OFFSET -1.78271 -1.18214 1.43049
                  }
                }
              }
              JOINT rIndex1
              {
                OFFSET -7.75947 0.938293 5.60832
                CHANNELS 3 Zrotation Xrotation Yrotation
                JOINT rIndex2
                {
                  OFFSET -2.54057 -0.884171 1.56538
                  CHANNELS 3 Zrotation Xrotation Yrotation
                  End Site
                  {
                    OFFSET -1.62519 -0.234802 1.16502
                  }
                }
              }
              JOINT rMid1
              {
                OFFSET -8.24714 1.18213 3.41376
                CHANNELS 3 Zrotation Xrotation Yrotation
                JOINT rMid2
                {
                  OFFSET -3.10165 -0.590103 1.0647
                  CHANNELS 3 Zrotation Xrotation Yrotation
                  End Site
                  {
                    OFFSET -2.48547 -0.328903 0.83742
                  }
                }
              }
              JOINT rRing1
              {
                OFFSET -8.82822 0.546677 1.51678
                CHANNELS 3 Zrotation Xrotation Yrotation
                JOINT rRing2
                {
                  OFFSET -2.60934 -0.819778 -0.0198488
                  CHANNELS 3 Zrotation Xrotation Yrotation
                  End Site
                  {
                    OFFSET -2.33842 -0.294052 0.168128
                  }
                }
              }
              JOINT rPinky1
              {
                OFFSET -8.27202 -0.0477905 -0.4584
                CHANNELS 3 Zrotation Xrotation Yrotation
                JOINT rPinky2
                {
                  OFFSET -1.82734 -0.647385 -0.700984
                  CHANNELS 3 Zrotation Xrotation Yrotation
                  End Site
                  {
                    OFFSET -1.69225 -0.51767 -0.607171
                  }
                }
              }
            }
          }
        }
      }
      JOINT lCollar
      {
        OFFSET 2.68224 19.2634 -4.8768
        CHANNELS 3 Zrotation Xrotation Yrotation
        JOINT lShldr
        {
          OFFSET 8.77824 -1.95073 1.46304
          CHANNELS 3 Zrotation Xrotation Yrotation
          JOINT lForeArm
          {
            OFFSET 28.1742 -1.7115 0.48768
            CHANNELS 3 Zrotation Xrotation Yrotation
            JOINT lHand
            {
              OFFSET 22.5879 0.773209 7.07136
              CHANNELS 3 Zrotation Xrotation Yrotation
              JOINT lThumb1
              {
                OFFSET 1.2192 -0.487915 3.41376
                CHANNELS 3 Zrotation Xrotation Yrotation
                JOINT lThumb2
                {
                  OFFSET 3.37035 -0.52449 3.41376
                  CHANNELS 3 Zrotation Xrotation Yrotation
                  End Site
                  {
                    OFFSET 1.78271 -1.18214 1.43049
                  }
                }
              }
              JOINT lIndex1
              {
                OFFSET 7.75947 0.938293 5.60832
                CHANNELS 3 Zrotation Xrotation Yrotation
                JOINT lIndex2
                {
                  OFFSET 2.54057 -0.884171 1.56538
                  CHANNELS 3 Zrotation Xrotation Yrotation
                  End Site
                  {
                    OFFSET 1.62519 -0.234802 1.16502
                  }
                }
              }
              JOINT lMid1
              {
                OFFSET 8.24714 1.18213 3.41376
                CHANNELS 3 Zrotation Xrotation Yrotation
                JOINT lMid2
                {
                  OFFSET 3.10165 -0.590103 1.0647
                  CHANNELS 3 Zrotation Xrotation Yrotation
                  End Site
                  {
                    OFFSET 2.48547 -0.328903 0.83742
                  }
                }
              }
              JOINT lRing1
              {
                OFFSET 8.82822 0.546677 1.51678
                CHANNELS 3 Zrotation Xrotation Yrotation
                JOINT lRing2
                {
                  OFFSET 2.60934 -0.819778 -0.0198488
                  CHANNELS 3 Zrotation Xrotation Yrotation
                  End Site
                  {
                    OFFSET 2.33842 -0.294052 0.168128
                  }
                }
              }
              JOINT lPinky1
              {
                OFFSET 8.27202 -0.0477905 -0.4584
                CHANNELS 3 Zrotation Xrotation Yrotation
                JOINT lPinky2
                {
                  OFFSET 1.82734 -0.647385 -0.700984
                  CHANNELS 3 Zrotation Xrotation Yrotation
                  End Site
                  {
                    OFFSET 1.69225 -0.51767 -0.607171
                  }
                }
              }
            }
          }
        }
      }
    }
  }
  JOINT rButtock
  {
    OFFSET -8.77824 4.35084 1.2192
    CHANNELS 3 Zrotation Xrotation Yrotation
    JOINT rThigh
    {
      OFFSET 0 -1.70687 -2.19456
      CHANNELS 3 Zrotation Xrotation Yrotation
      JOINT rShin
      {
        OFFSET 0 -36.8199 0.73152
        CHANNELS 3 Zrotation Xrotation Yrotation
        JOINT rFoot
        {
          OFFSET 0.73152 -45.1104 -5.12064
          CHANNELS 3 Zrotation Xrotation Yrotation
          End Site
          {
            OFFSET -1.1221 -3.69964 12.103
          }
        }
      }
    }
  }
  JOINT lButtock
  {
    OFFSET 8.77824 4.35084 1.2192
    CHANNELS 3 Zrotation Xrotation Yrotation
    JOINT lThigh
    {
      OFFSET 0 -1.70687 -2.19456
      CHANNELS 3 Zrotation Xrotation Yrotation
      JOINT lShin
      {
        OFFSET 0 -36.8199 0.73152
        CHANNELS 3 Zrotation Xrotation Yrotation
        JOINT lFoot
        {
          OFFSET -0.73152 -45.1104 -5.12064
          CHANNELS 3 Zrotation Xrotation Yrotation
          End Site
          {
            OFFSET 1.1221 -3.69964 12.103
          }
        }
      }
    }
  }
}
MOTION
Frames:	4
Frame Time:	0.03333
-6.464509593030142 33.835370619841655 13.665995210122485 2.8787364959716797 19.81757354736328 7.09572696685791 -9.895636558532715 9.650165557861328 2.2402946949005127 4.438444137573242 -9.7232084274292 0.8131279945373535 -7.886574745178223 16.038354873657227 -8.187962532043457 12.510269165039062 -25.194061279296875 -13.251019477844238 -0.08521703630685806 -0.050550468266010284 0.004556338302791119 -0.006016895640641451 -0.09453999996185303 -0.08990322053432465 0.01049003005027771 0.003786437911912799 -0.08045835793018341 37.43977737426758 38.191463470458984 16.329370498657227 -28.168310165405273 -34.0166130065918 73.97747802734375 0.1532038152217865 1.1716374158859253 0.1961659938097 0.08870413899421692 -0.07732031494379044 -0.08436202257871628 -0.029028812423348427 -0.027358457446098328 -0.08657021820545197 -0.07805188745260239 -0.041966233402490616 0.037007302045822144 7.728095531463623 5.4535627365112305 0.4127315580844879 -0.04990686476230621 0.05829600989818573 -0.06875815987586975 2.985811710357666 1.00368332862854 0.17577137053012848 0.012643230147659779 -0.031191077083349228 -0.06667754054069519 10.269096374511719 0.7654954195022583 0.05943864583969116 0.013502654619514942 -0.053769562393426895 -0.034446243196725845 2.2758214473724365 -0.7696183919906616 -0.16300924122333527 -0.06675413995981216 0.05674386024475098 0.16903160512447357 -55.52060317993164 56.25224685668945 -18.01848030090332 27.63861083984375 -41.20926284790039 -86.12945556640625 1.8085085153579712 -35.5327033996582 5.766992092132568 0.04116225615143776 0.06696328520774841 -0.049233485013246536 0.0730910673737526 0.0175738874822855 -0.022327739745378494 0.008810888975858688 0.023721329867839813 -0.039253730326890945 -7.768630504608154 5.451669216156006 -0.546679675579071 0.03666434809565544 -0.2034733146429062 -0.21364885568618774 -2.966968297958374 1.0135735273361206 -0.13058903813362122 -0.1151156798005104 -0.0650661513209343 -0.05015210434794426 -10.213351249694824 0.8358319997787476 0.01726946420967579 0.021873576566576958 -0.015430617146193981 0.07810860127210617 -2.2309043407440186 -0.7497342824935913 0.37385186553001404 0.05760249122977257 0.03813357278704643 -0.03245964273810387 -41.41282653808594 -58.131038665771484 -40.02000045776367 -1.1655681133270264 64.09078979492188 1.5282342433929443 3.0854499340057373 -1.1048043966293335 21.026254653930664 -0.02054431661963463 -0.0351199135184288 0.009691177867352962 12.929264068603516 0.779711127281189 1.9870673418045044 -0.05972583219408989 40.8541259765625 -2.3778114318847656 10.985347747802734 -19.64606475830078 31.728374481201172
-6.468284446485338 33.688193703606224 13.796693748036523 3.105644941329956 19.296852111816406 7.002806663513184 -10.088552474975586 9.553885459899902 2.203712224960327 4.471084117889404 -9.680564880371094 0.8167408108711243 -7.753394603729248 15.960352897644043 -7.977526664733887 12.153838157653809 -25.103689193725586 -12.924544334411621 -0.07785295695066452 -0.054166845977306366 0.01318102702498436 -0.0001659477420616895 -0.09786299616098404 -0.10347751528024673 0.0200927946716547 0.01097804307937622 -0.08424869924783707 37.594486236572266 38.04823303222656 16.43332862854004 -28.169761657714844 -33.687870025634766 73.46515655517578 0.15519626438617706 1.305525541305542 0.1964457780122757 0.0883294865489006 -0.07821482419967651 -0.086032934486866 -0.027368992567062378 -0.020425768569111824 -0.09035318344831467 -0.08258339762687683 -0.03932885080575943 0.04660337418317795 7.733537673950195 5.459804534912109 0.3928188979625702 -0.05062781646847725 0.06019941717386246 -0.07368937879800797 2.9697320461273193 0.9849823713302612 0.18389733135700226 0.014284064061939716 -0.05616443604230881 -0.07585994899272919 10.245866775512695 0.7766446471214294 0.05854145437479019 0.01459669042378664 -0.05663074925541878 -0.03124048002064228 2.2883894443511963 -0.763157069683075 -0.16661852598190308 -0.06529632955789566 0.04790612310171127 0.1597452312707901 -55.5370979309082 56.31489562988281 -18.110685348510742 27.64011573791504 -41.162513732910156 -86.06450653076172 1.815436840057373 -35.615745544433594 5.788734436035156 0.04457110911607742 0.07867345958948135 -0.059231437742710114 0.07369432598352432 0.006701831240206957 -0.03247488662600517 0.004505172837525606 0.03229610249400139 -0.03695497289299965 -7.769720554351807 5.452200889587402 -0.5360766053199768 0.034091539680957794 -0.19892245531082153 -0.20763957500457764 -2.9800264835357666 1.0163428783416748 -0.1445651799440384 -0.1262763887643814 -0.06864825636148453 -0.046707216650247574 -10.19447135925293 0.8533281087875366 0.019485779106616974 0.012583507224917412 -0.016217688098549843 0.08627346903085709 -2.2305006980895996 -0.7515851855278015 0.3643507659435272 0.052882689982652664 0.05460558459162712 -0.03841365873813629 -41.960609436035156 -58.524349212646484 -40.57989501953125 -1.1911863088607788 64.93215942382812 1.557910442352295 3.122753620147705 -1.3892226219177246 21.226266860961914 -0.02931664139032364 -0.04560143128037453 0.029628047719597816 12.430386543273926 1.7969247102737427 2.539567470550537 -0.06494374573230743 40.27438735961914 -2.41426682472229 11.592195510864258 -19.871849060058594 32.730072021484375
-6.499334166287099 33.55811616595791 13.918332840429331 3.1857054233551025 18.967519760131836 6.865479469299316 -10.079376220703125 9.484512329101562 2.1211864948272705 4.485073566436768 -9.64431381225586 0.8098441362380981 -7.646003723144531 15.885086059570312 -7.822872161865234 11.847023963928223 -25.033849716186523 -12.681771278381348 -0.06739012151956558 -0.052277859300374985 0.02297624945640564 0.0057268147356808186 -0.09841269254684448 -0.11263903230428696 0.036852799355983734 0.018191102892160416 -0.08548471331596375 37.90936279296875 37.885520935058594 16.312105178833008 -28.175077438354492 -33.45442581176758 73.11225128173828 0.1530175358057022 1.3849797248840332 0.19262120127677917 0.08319459110498428 -0.08245521783828735 -0.0857175663113594 -0.024391695857048035 -0.013177536427974701 -0.08562103658914566 -0.08681966364383698 -0.03959289938211441 0.04954787343740463 7.735134124755859 5.468936443328857 0.37636107206344604 -0.047898273915052414 0.05114486813545227 -0.07475502043962479 2.950038433074951 0.9601742625236511 0.18481703102588654 0.020570481196045876 -0.06822783499956131 -0.08061735332012177 10.228644371032715 0.780512273311615 0.05478101596236229 0.008280646987259388 -0.05445939302444458 -0.021952752023935318 2.2908592224121094 -0.7479572892189026 -0.1724829226732254 -0.06747164577245712 0.04196088761091232 0.15303662419319153 -55.38218307495117 56.50310516357422 -18.39160919189453 27.65804672241211 -41.10988235473633 -86.00859832763672 1.820242166519165 -35.688507080078125 5.814789295196533 0.04802718386054039 0.08644440770149231 -0.061644941568374634 0.06994577497243881 -0.008061034604907036 -0.04183541610836983 -0.0017308094538748264 0.034875862300395966 -0.03728838264942169 -7.768401622772217 5.450119495391846 -0.5179921984672546 0.030952708795666695 -0.19012799859046936 -0.20013859868049622 -2.9903907775878906 1.0150933265686035 -0.16172482073307037 -0.13406185805797577 -0.07026427984237671 -0.04443477466702461 -10.181375503540039 0.861185610294342 0.015520798973739147 -0.0014387747505679727 -0.011963273398578167 0.09176691621541977 -2.2321019172668457 -0.7529288530349731 0.34673580527305603 0.04683057591319084 0.07672850042581558 -0.042376913130283356 -42.13529968261719 -58.8182373046875 -40.77627182006836 -1.2256124019622803 65.5973129272461 1.5875446796417236 3.140594720840454 -1.771234154701233 21.215635299682617 -0.039957236498594284 -0.058357033878564835 0.049905888736248016 12.163111686706543 2.385380744934082 3.0996286869049072 -0.060293618589639664 40.121429443359375 -2.451011896133423 12.154505729675293 -20.091691970825195 33.52598190307617
-6.554707897270567 33.46241497040228 14.032400454683769 3.2155470848083496 18.70379066467285 6.738165855407715 -10.032466888427734 9.43443489074707 2.0442328453063965 4.481240749359131 -9.613625526428223 0.8026330471038818 -7.566379070281982 15.800516128540039 -7.691390037536621 11.582027435302734 -24.94378662109375 -12.49185562133789 -0.05654577910900116 -0.051539745181798935 0.029492458328604698 0.009964594617486 -0.09487474709749222 -0.1144520491361618 0.05235232785344124 0.024379516020417213 -0.08552274107933044 38.288455963134766 37.77810287475586 16.12238311767578 -28.19222640991211 -33.2731819152832 72.81389617919922 0.15166769921779633 1.4503169059753418 0.18207617104053497 0.0741618201136589 -0.08553280681371689 -0.08667103201150894 -0.020018557086586952 -0.006802716758102179 -0.07648764550685883 -0.08989442139863968 -0.03650149703025818 0.050808463245630264 7.740254878997803 5.477137088775635 0.3678421080112457 -0.05138368532061577 0.03494634851813316 -0.07140529155731201 2.9271421432495117 0.9393157362937927 0.18113024532794952 0.027524465695023537 -0.07177788764238358 -0.08061616122722626 10.217022895812988 0.7827452421188354 0.04649897664785385 5.8173525758320466e-05 -0.049225226044654846 -0.012259932234883308 2.288856267929077 -0.7316176891326904 -0.176554873585701 -0.06880608201026917 0.0339045487344265 0.14546817541122437 -55.143836975097656 56.67411804199219 -18.750272750854492 27.684646606445312 -41.05916976928711 -85.91947937011719 1.811117172241211 -35.66638946533203 5.808692455291748 0.0506015345454216 0.08938286453485489 -0.059804413467645645 0.06492704898118973 -0.022087296470999718 -0.047487612813711166 -0.008049335330724716 0.036091212183237076 -0.037109412252902985 -7.7653703689575195 5.4508161544799805 -0.49828827381134033 0.02965458482503891 -0.17742812633514404 -0.19304010272026062 -2.998854637145996 1.0116828680038452 -0.1778418868780136 -0.13956522941589355 -0.0647592842578888 -0.044489536434412 -10.174627304077148 0.8669335842132568 0.009718621149659157 -0.012869857251644135 -0.007967568933963776 0.09410794079303741 -2.233973979949951 -0.7493093013763428 0.32978785037994385 0.04136507958173752 0.09717265516519547 -0.043224066495895386 -42.26121139526367 -59.098548889160156 -40.91874694824219 -1.2612448930740356 66.24359893798828 1.614472508430481 3.1629509925842285 -2.1585962772369385 21.093461990356445 -0.052574045956134796 -0.06868177652359009 0.0655200406908989 11.977816581726074 2.80051326751709 3.6147289276123047 -0.055885665118694305 40.07587432861328 -2.48417592048645 12.672618865966797 -20.302688598632812 34.21471405029297
